<svg width="800" height="800" viewBox="0 0 800 800" fill="none" xmlns="http://www.w3.org/2000/svg">
<g clip-path="url(#clip0_1_23)">
<rect width="800" height="800" rx="128" fill="#311851"/>
<path d="M374 125C374 180.228 329.228 225 274 225H224V300H374C374 355.228 329.228 400 274 400H224V675C168.772 675 124 630.228 124 575V225C124 169.772 168.772 125 224 125H374Z" fill="white"/>
<path d="M515 487.5C515 535.825 554.175 575 602.5 575H665C665 630.228 620.228 675 565 675H515C459.772 675 415 630.228 415 575V400H427.5C475.825 400 515 439.175 515 487.5Z" fill="white"/>
<path d="M665 400H652.5C604.175 400 565 360.825 565 312.5V300C565 258.579 531.421 225 490 225C448.579 225 415 191.421 415 150V125H565C620.228 125 665 169.772 665 225V400Z" fill="white"/>
</g>
<defs>
<clipPath id="clip0_1_23">
<rect width="800" height="800" fill="white"/>
</clipPath>
</defs>
</svg>
