<svg width="1000" height="1000" viewBox="0 0 1000 1000" fill="none" xmlns="http://www.w3.org/2000/svg">
<rect x="105" y="100" width="800" height="800" rx="128" fill="#311851"/>
<path d="M479 225C479 280.228 434.228 325 379 325H329V400H479C479 455.228 434.228 500 379 500H329V775C273.772 775 229 730.228 229 675V325C229 269.772 273.772 225 329 225H479Z" fill="white"/>
<path d="M620 587.5C620 635.825 659.175 675 707.5 675H770C770 730.228 725.228 775 670 775H620C564.772 775 520 730.228 520 675V500H532.5C580.825 500 620 539.175 620 587.5Z" fill="white"/>
<path d="M770 500H757.5C709.175 500 670 460.825 670 412.5V400C670 358.579 636.421 325 595 325C553.579 325 520 291.421 520 250V225H670C725.228 225 770 269.772 770 325V500Z" fill="white"/>
</svg>
